<svg xmlns="http://www.w3.org/2000/svg" viewBox="0 0 100 100">
  <!-- Dark night background -->
  <rect width="100" height="100" rx="22" fill="#0a0e1a"/>
  <!-- Moon-blue glow ring -->
  <circle cx="50" cy="52" r="34" fill="none" stroke="#909ec8" stroke-width="2.5" opacity="0.55"/>
  <!-- Cute skull -->
  <g transform="translate(50,52) scale(1.9)">
    <path d="M0,-16 C-11,-16 -17,-9 -17,0 C-17,6 -14,10 -10,12 L-10,17 L-5,17 L-5,13 L0,13 L0,17 L5,17 L5,13 L10,13 L10,17 L10,12 C14,10 17,6 17,0 C17,-9 11,-16 0,-16 Z" fill="#e8eef8"/>
    <circle cx="-6" cy="0" r="4" fill="#0a0e1a"/>
    <circle cx="6" cy="0" r="4" fill="#0a0e1a"/>
    <circle cx="-7.3" cy="-1.4" r="1.3" fill="#ffffff"/>
    <circle cx="4.7" cy="-1.4" r="1.3" fill="#ffffff"/>
    <path d="M0,5.5 L-1.6,9 L1.6,9 Z" fill="#0a0e1a" opacity="0.7"/>
    <ellipse cx="-10.5" cy="6.5" rx="2.6" ry="1.5" fill="#c9a0dc" opacity="0.6"/>
    <ellipse cx="10.5" cy="6.5" rx="2.6" ry="1.5" fill="#c9a0dc" opacity="0.6"/>
  </g>
</svg>
